<svg xmlns="http://www.w3.org/2000/svg" xmlns:xlink="http://www.w3.org/1999/xlink" fill="none" version="1.1" width="29" height="29" viewBox="0 0 29 29"><g><path d="M7.38892,19.6274C7.58106,19.7223,7.78631,19.7698,7.98719,19.7698C8.46318,19.7698,8.92171,19.5153,9.15316,19.071C9.48505,18.437,9.23176,17.6563,8.58982,17.3285L4.13554,15.0555L22.5533,5.43726L10.922,19.4376C10.7299,19.6662,10.625,19.9595,10.625,20.2572L10.625,27.706C10.625,28.422,11.2102,29,11.9351,29C12.6557,29,13.2452,28.422,13.2452,27.706L13.2452,20.723L25.7478,5.67855L23.0665,24.5272L16.5204,21.2362C15.8785,20.9128,15.0881,21.1629,14.7605,21.8013C14.433,22.4353,14.6863,23.216,15.3326,23.5395L23.5119,27.65C23.8918,27.8397,24.3372,27.8397,24.7128,27.6457C25.084,27.4559,25.346,27.0936,25.4028,26.6795L28.988,1.47319C29.0036,1.35943,29.0038,1.24635,28.9898,1.13634C28.9713,0.983692,28.9248,0.831906,28.8481,0.688205C28.539,0.109331,27.8424,-0.141519,27.2367,0.0797224C27.1716,0.103281,27.1084,0.131995,27.0475,0.165715L0.698763,13.9254C0.266435,14.154,-0.00431479,14.5939,0.0000521231,15.077C0.0000521231,15.5601,0.27517,16,0.707496,16.22L7.38892,19.6274Z" fill-rule="evenodd" fill="#FFFFFF" fill-opacity="1" style="mix-blend-mode:passthrough"/></g></svg>