<svg xmlns="http://www.w3.org/2000/svg" xmlns:xlink="http://www.w3.org/1999/xlink" fill="none" version="1.1" width="793" height="202" viewBox="0 0 793 202"><g><path d="M58.7352,196.267L5.73215,201.959C1.92609,202.368,-1.05888,199.616,0.359193,197.005L19.3967,161.959L19.3967,29.1852C19.3967,13.0666,37.2961,0,59.3762,0L753.021,0C775.101,0,793,13.0666,793,29.1852L793,167.085C793,183.204,775.101,196.27,753.021,196.27L59.3762,196.27C59.1621,196.27,58.9485,196.269,58.7352,196.267Z" fill-rule="evenodd" fill="#FDF1EA" fill-opacity="1"/><path d="M59.3762,196.27C59.1621,196.27,58.9485,196.269,58.7352,196.267L5.73215,201.959C1.92609,202.368,-1.05888,199.616,0.359193,197.005L19.3967,161.959L19.3967,29.1852C19.3967,13.0666,37.2961,0,59.3762,0L753.021,0C775.101,0,793,13.0666,793,29.1852L793,167.085C793,183.204,775.101,196.27,753.021,196.27L59.3762,196.27ZM58.5217,194.278L58.6338,194.266L59.3762,194.27L753.021,194.27Q768.928,194.27,780.111,186.107Q791,178.158,791,167.085L791,29.1852Q791,18.1123,780.111,10.1635Q768.928,2,753.021,2L59.3762,2Q43.4685,1.99999,32.2856,10.1635Q21.3967,18.1125,21.3967,29.1852L21.3967,162.467L2.11665,197.96Q1.7967,198.549,2.44236,199.144Q3.56623,200.181,5.51857,199.971L58.5217,194.278Z" fill-rule="evenodd" fill="#A55D4F" fill-opacity="1"/></g></svg>